<svg width="152" height="131" viewBox="0 0 152 131" fill="none" xmlns="http://www.w3.org/2000/svg">
<path d="M123.32 130.844C116.94 130.844 111.276 129.411 106.328 126.547C97.6042 121.208 91.4193 112.224 87.7734 99.5938C84.1276 86.8333 83.9974 73.5521 87.3828 59.75C91.2891 44.3854 98.9714 31.4297 110.43 20.8828C121.628 10.7266 134.583 4.08594 149.297 0.960938V14.2422C139.141 18.1484 130.286 24.2682 122.734 32.6016C114.792 41.4557 109.323 50.8958 106.328 60.9219C105.286 64.8281 104.701 69.3854 104.57 74.5938C104.57 79.6719 106.133 80.7786 109.258 77.9141C113.555 75.4401 118.242 74.138 123.32 74.0078C131.003 73.7474 137.643 76.4167 143.242 82.0156C148.971 87.7448 151.836 94.4505 151.836 102.133C151.836 110.466 149.167 117.237 143.828 122.445C138.099 128.044 131.263 130.844 123.32 130.844ZM41.875 130.844C35.4948 130.844 29.8307 129.411 24.8828 126.547C16.1589 121.208 9.97396 112.224 6.32812 99.5938C2.68229 86.8333 2.55208 73.5521 5.9375 59.75C9.84375 44.3854 17.526 31.4297 28.9844 20.8828C40.1823 10.7266 53.138 4.08594 67.8516 0.960938V14.2422C57.6953 18.1484 48.8411 24.2682 41.2891 32.6016C33.3464 41.4557 27.8776 50.8958 24.8828 60.9219C23.8411 64.8281 23.2552 69.3854 23.125 74.5938C23.125 79.6719 24.6875 80.7786 27.8125 77.9141C32.1094 75.4401 36.7969 74.138 41.875 74.0078C49.5573 73.7474 56.1979 76.4167 61.7969 82.0156C67.526 87.7448 70.3906 94.4505 70.3906 102.133C70.3906 110.466 67.7214 117.237 62.3828 122.445C56.6536 128.044 49.8177 130.844 41.875 130.844Z" fill="black"/>
</svg>
